<svg version="1.1" id="Layer_1" xmlns="http://www.w3.org/2000/svg" xmlns:xlink="http://www.w3.org/1999/xlink" viewBox="0 0 512 512" xml:space="preserve" fill="#000000"><g id="SVGRepo_bgCarrier" stroke-width="0"></g><g id="SVGRepo_tracerCarrier" stroke-linecap="round" stroke-linejoin="round"></g><g id="SVGRepo_iconCarrier"> <circle style="fill:#FC6F58;" cx="256" cy="256" r="256"></circle> <path style="fill:#F1543F;" d="M284.827,510.374c111.342-12.481,201.078-96.363,222.358-204.802L299.877,98.264l-76.631,3.158 l-37.809,25.426l84.806,84.806L164.474,390.023L284.827,510.374z"></path> <path style="fill:#FED8B2;" d="M292.633,93.263H223.88c-10.207,0-19.803,3.975-27.02,11.192l-11.421,11.421 c-3.029,3.029-3.029,7.942,0,10.971c1.515,1.514,3.5,2.272,5.485,2.272c1.986,0,3.97-0.757,5.485-2.272l11.421-11.421 c4.287-4.287,9.987-6.647,16.05-6.647h24.362v51.545c0,4.284,3.474,7.758,7.758,7.758l0,0v-59.302h36.633 c4.284,0,7.758-3.474,7.758-7.758C300.391,96.737,296.917,93.263,292.633,93.263z"></path> <path style="fill:#E5C5A8;" d="M292.633,93.263H256v74.818c4.284,0,7.758-3.474,7.758-7.758v-51.545h28.875 c4.284,0,7.758-3.474,7.758-7.758C300.391,96.737,296.917,93.263,292.633,93.263z"></path> <rect x="227.556" y="142.222" style="fill:#F4C69D;" width="56.889" height="56.889"></rect> <rect x="256" y="142.222" style="fill:#D39D71;" width="28.444" height="56.889"></rect> <path style="fill:#F4E3C3;" d="M330.228,398.222H181.772c-13.448,0-23.854-11.786-22.185-25.131l22.856-182.839 c1.398-11.188,10.911-19.585,22.185-19.585h102.747c11.276,0,20.787,8.397,22.185,19.585l22.856,182.839 C354.082,386.436,343.676,398.222,330.228,398.222z"></path> <path style="fill:#E5D6BD;" d="M352.415,373.091l-22.856-182.839c-1.398-11.188-10.911-19.585-22.187-19.585H256v227.556h74.228 C343.676,398.222,354.082,386.436,352.415,373.091z"></path> <rect x="199.111" y="256" style="fill:#F4C69D;" width="113.778" height="85.333"></rect> <rect x="256" y="256" style="fill:#D39D71;" width="56.889" height="85.333"></rect> </g></svg>