<svg width="76px" height="76px" viewBox="0 0 1024 1024" class="icon" version="1.1" xmlns="http://www.w3.org/2000/svg" fill="#000000"><g id="SVGRepo_bgCarrier" stroke-width="0"></g><g id="SVGRepo_tracerCarrier" stroke-linecap="round" stroke-linejoin="round" stroke="#CCCCCC" stroke-width="20.48"><path d="M810.666667 277.333333c-70.4 0-128-19.2-128-42.666666v42.666666c0 23.466667 57.6 42.666667 128 42.666667s128-19.2 128-42.666667v-42.666666c0 23.466667-57.6 42.666667-128 42.666666z" fill="#FFA000"></path><path d="M810.666667 213.333333c-70.4 0-128-19.2-128-42.666666v42.666666c0 23.466667 57.6 42.666667 128 42.666667s128-19.2 128-42.666667V170.666667c0 23.466667-57.6 42.666667-128 42.666666zM810.666667 341.333333c-70.4 0-128-19.2-128-42.666666v42.666666c0 23.466667 57.6 42.666667 128 42.666667s128-19.2 128-42.666667v-42.666666c0 23.466667-57.6 42.666667-128 42.666666z" fill="#FFA000"></path><path d="M810.666667 405.333333c-70.4 0-128-19.2-128-42.666666v42.666666c0 23.466667 57.6 42.666667 128 42.666667s128-19.2 128-42.666667v-42.666666c0 23.466667-57.6 42.666667-128 42.666666z" fill="#FFA000"></path><path d="M810.666667 469.333333c-70.4 0-128-19.2-128-42.666666v42.666666c0 23.466667 57.6 42.666667 128 42.666667s128-19.2 128-42.666667v-42.666666c0 23.466667-57.6 42.666667-128 42.666666z" fill="#FFA000"></path><path d="M810.666667 533.333333c-70.4 0-128-19.2-128-42.666666v42.666666c0 23.466667 57.6 42.666667 128 42.666667s128-19.2 128-42.666667v-42.666666c0 23.466667-57.6 42.666667-128 42.666666z" fill="#FFA000"></path><path d="M810.666667 597.333333c-70.4 0-128-19.2-128-42.666666v42.666666c0 23.466667 57.6 42.666667 128 42.666667s128-19.2 128-42.666667v-42.666666c0 23.466667-57.6 42.666667-128 42.666666z" fill="#FFA000"></path><path d="M810.666667 661.333333c-70.4 0-128-19.2-128-42.666666v42.666666c0 23.466667 57.6 42.666667 128 42.666667s128-19.2 128-42.666667v-42.666666c0 23.466667-57.6 42.666667-128 42.666666z" fill="#FFA000"></path><path d="M810.666667 725.333333c-70.4 0-128-19.2-128-42.666666v42.666666c0 23.466667 57.6 42.666667 128 42.666667s128-19.2 128-42.666667v-42.666666c0 23.466667-57.6 42.666667-128 42.666666z" fill="#FFA000"></path><path d="M810.666667 789.333333c-70.4 0-128-19.2-128-42.666666v42.666666c0 23.466667 57.6 42.666667 128 42.666667s128-19.2 128-42.666667v-42.666666c0 23.466667-57.6 42.666667-128 42.666666z" fill="#FFA000"></path><path d="M810.666667 853.333333c-70.4 0-128-19.2-128-42.666666v42.666666c0 23.466667 57.6 42.666667 128 42.666667s128-19.2 128-42.666667v-42.666666c0 23.466667-57.6 42.666667-128 42.666666z" fill="#FFA000"></path><path d="M682.666667 170.666667a128 42.666667 0 1 0 256 0 128 42.666667 0 1 0-256 0Z" fill="#FFC107"></path><path d="M810.666667 256c-59.733333 0-108.8-12.8-123.733334-32-2.133333 4.266667-4.266667 6.4-4.266666 10.666667 0 23.466667 57.6 42.666667 128 42.666666s128-19.2 128-42.666666c0-4.266667-2.133333-6.4-4.266667-10.666667-14.933333 19.2-64 32-123.733333 32zM810.666667 320c-59.733333 0-108.8-12.8-123.733334-32-2.133333 4.266667-4.266667 6.4-4.266666 10.666667 0 23.466667 57.6 42.666667 128 42.666666s128-19.2 128-42.666666c0-4.266667-2.133333-6.4-4.266667-10.666667-14.933333 19.2-64 32-123.733333 32zM810.666667 384c-59.733333 0-108.8-12.8-123.733334-32-2.133333 4.266667-4.266667 6.4-4.266666 10.666667 0 23.466667 57.6 42.666667 128 42.666666s128-19.2 128-42.666666c0-4.266667-2.133333-6.4-4.266667-10.666667-14.933333 19.2-64 32-123.733333 32zM810.666667 448c-59.733333 0-108.8-12.8-123.733334-32-2.133333 4.266667-4.266667 6.4-4.266666 10.666667 0 23.466667 57.6 42.666667 128 42.666666s128-19.2 128-42.666666c0-4.266667-2.133333-6.4-4.266667-10.666667-14.933333 19.2-64 32-123.733333 32zM810.666667 512c-59.733333 0-108.8-12.8-123.733334-32-2.133333 4.266667-4.266667 6.4-4.266666 10.666667 0 23.466667 57.6 42.666667 128 42.666666s128-19.2 128-42.666666c0-4.266667-2.133333-6.4-4.266667-10.666667-14.933333 19.2-64 32-123.733333 32zM810.666667 576c-59.733333 0-108.8-12.8-123.733334-32-2.133333 4.266667-4.266667 6.4-4.266666 10.666667 0 23.466667 57.6 42.666667 128 42.666666s128-19.2 128-42.666666c0-4.266667-2.133333-6.4-4.266667-10.666667-14.933333 19.2-64 32-123.733333 32zM810.666667 640c-59.733333 0-108.8-12.8-123.733334-32-2.133333 4.266667-4.266667 6.4-4.266666 10.666667 0 23.466667 57.6 42.666667 128 42.666666s128-19.2 128-42.666666c0-4.266667-2.133333-6.4-4.266667-10.666667-14.933333 19.2-64 32-123.733333 32zM810.666667 704c-59.733333 0-108.8-12.8-123.733334-32-2.133333 4.266667-4.266667 6.4-4.266666 10.666667 0 23.466667 57.6 42.666667 128 42.666666s128-19.2 128-42.666666c0-4.266667-2.133333-6.4-4.266667-10.666667-14.933333 19.2-64 32-123.733333 32zM810.666667 768c-59.733333 0-108.8-12.8-123.733334-32-2.133333 4.266667-4.266667 6.4-4.266666 10.666667 0 23.466667 57.6 42.666667 128 42.666666s128-19.2 128-42.666666c0-4.266667-2.133333-6.4-4.266667-10.666667-14.933333 19.2-64 32-123.733333 32zM810.666667 832c-59.733333 0-108.8-12.8-123.733334-32-2.133333 4.266667-4.266667 6.4-4.266666 10.666667 0 23.466667 57.6 42.666667 128 42.666666s128-19.2 128-42.666666c0-4.266667-2.133333-6.4-4.266667-10.666667-14.933333 19.2-64 32-123.733333 32z" fill="#FFC107"></path><path d="M213.333333 405.333333c-70.4 0-128-19.2-128-42.666666v42.666666c0 23.466667 57.6 42.666667 128 42.666667s128-19.2 128-42.666667v-42.666666c0 23.466667-57.6 42.666667-128 42.666666z" fill="#FFA000"></path><path d="M213.333333 341.333333c-70.4 0-128-19.2-128-42.666666v42.666666c0 23.466667 57.6 42.666667 128 42.666667s128-19.2 128-42.666667v-42.666666c0 23.466667-57.6 42.666667-128 42.666666zM213.333333 469.333333c-70.4 0-128-19.2-128-42.666666v42.666666c0 23.466667 57.6 42.666667 128 42.666667s128-19.2 128-42.666667v-42.666666c0 23.466667-57.6 42.666667-128 42.666666z" fill="#FFA000"></path><path d="M213.333333 533.333333c-70.4 0-128-19.2-128-42.666666v42.666666c0 23.466667 57.6 42.666667 128 42.666667s128-19.2 128-42.666667v-42.666666c0 23.466667-57.6 42.666667-128 42.666666z" fill="#FFA000"></path><path d="M213.333333 597.333333c-70.4 0-128-19.2-128-42.666666v42.666666c0 23.466667 57.6 42.666667 128 42.666667s128-19.2 128-42.666667v-42.666666c0 23.466667-57.6 42.666667-128 42.666666z" fill="#FFA000"></path><path d="M213.333333 661.333333c-70.4 0-128-19.2-128-42.666666v42.666666c0 23.466667 57.6 42.666667 128 42.666667s128-19.2 128-42.666667v-42.666666c0 23.466667-57.6 42.666667-128 42.666666z" fill="#FFA000"></path><path d="M213.333333 725.333333c-70.4 0-128-19.2-128-42.666666v42.666666c0 23.466667 57.6 42.666667 128 42.666667s128-19.2 128-42.666667v-42.666666c0 23.466667-57.6 42.666667-128 42.666666z" fill="#FFA000"></path><path d="M213.333333 789.333333c-70.4 0-128-19.2-128-42.666666v42.666666c0 23.466667 57.6 42.666667 128 42.666667s128-19.2 128-42.666667v-42.666666c0 23.466667-57.6 42.666667-128 42.666666z" fill="#FFA000"></path><path d="M213.333333 853.333333c-70.4 0-128-19.2-128-42.666666v42.666666c0 23.466667 57.6 42.666667 128 42.666667s128-19.2 128-42.666667v-42.666666c0 23.466667-57.6 42.666667-128 42.666666z" fill="#FFA000"></path><path d="M85.333333 298.666667a128 42.666667 0 1 0 256 0 128 42.666667 0 1 0-256 0Z" fill="#FFC107"></path><path d="M213.333333 384c-59.733333 0-108.8-12.8-123.733333-32-2.133333 4.266667-4.266667 6.4-4.266667 10.666667 0 23.466667 57.6 42.666667 128 42.666666s128-19.2 128-42.666666c0-4.266667-2.133333-6.4-4.266666-10.666667-14.933333 19.2-64 32-123.733334 32zM213.333333 448c-59.733333 0-108.8-12.8-123.733333-32-2.133333 4.266667-4.266667 6.4-4.266667 10.666667 0 23.466667 57.6 42.666667 128 42.666666s128-19.2 128-42.666666c0-4.266667-2.133333-6.4-4.266666-10.666667-14.933333 19.2-64 32-123.733334 32zM213.333333 512c-59.733333 0-108.8-12.8-123.733333-32-2.133333 4.266667-4.266667 6.4-4.266667 10.666667 0 23.466667 57.6 42.666667 128 42.666666s128-19.2 128-42.666666c0-4.266667-2.133333-6.4-4.266666-10.666667-14.933333 19.2-64 32-123.733334 32zM213.333333 576c-59.733333 0-108.8-12.8-123.733333-32-2.133333 4.266667-4.266667 6.4-4.266667 10.666667 0 23.466667 57.6 42.666667 128 42.666666s128-19.2 128-42.666666c0-4.266667-2.133333-6.4-4.266666-10.666667-14.933333 19.2-64 32-123.733334 32zM213.333333 640c-59.733333 0-108.8-12.8-123.733333-32-2.133333 4.266667-4.266667 6.4-4.266667 10.666667 0 23.466667 57.6 42.666667 128 42.666666s128-19.2 128-42.666666c0-4.266667-2.133333-6.4-4.266666-10.666667-14.933333 19.2-64 32-123.733334 32zM213.333333 704c-59.733333 0-108.8-12.8-123.733333-32-2.133333 4.266667-4.266667 6.4-4.266667 10.666667 0 23.466667 57.6 42.666667 128 42.666666s128-19.2 128-42.666666c0-4.266667-2.133333-6.4-4.266666-10.666667-14.933333 19.2-64 32-123.733334 32zM213.333333 768c-59.733333 0-108.8-12.8-123.733333-32-2.133333 4.266667-4.266667 6.4-4.266667 10.666667 0 23.466667 57.6 42.666667 128 42.666666s128-19.2 128-42.666666c0-4.266667-2.133333-6.4-4.266666-10.666667-14.933333 19.2-64 32-123.733334 32zM213.333333 832c-59.733333 0-108.8-12.8-123.733333-32-2.133333 4.266667-4.266667 6.4-4.266667 10.666667 0 23.466667 57.6 42.666667 128 42.666666s128-19.2 128-42.666666c0-4.266667-2.133333-6.4-4.266666-10.666667-14.933333 19.2-64 32-123.733334 32z" fill="#FFC107"></path><path d="M512 597.333333c-70.4 0-128-19.2-128-42.666666v42.666666c0 23.466667 57.6 42.666667 128 42.666667s128-19.2 128-42.666667v-42.666666c0 23.466667-57.6 42.666667-128 42.666666z" fill="#FFA000"></path><path d="M512 533.333333c-70.4 0-128-19.2-128-42.666666v42.666666c0 23.466667 57.6 42.666667 128 42.666667s128-19.2 128-42.666667v-42.666666c0 23.466667-57.6 42.666667-128 42.666666zM512 661.333333c-70.4 0-128-19.2-128-42.666666v42.666666c0 23.466667 57.6 42.666667 128 42.666667s128-19.2 128-42.666667v-42.666666c0 23.466667-57.6 42.666667-128 42.666666z" fill="#FFA000"></path><path d="M512 725.333333c-70.4 0-128-19.2-128-42.666666v42.666666c0 23.466667 57.6 42.666667 128 42.666667s128-19.2 128-42.666667v-42.666666c0 23.466667-57.6 42.666667-128 42.666666z" fill="#FFA000"></path><path d="M512 789.333333c-70.4 0-128-19.2-128-42.666666v42.666666c0 23.466667 57.6 42.666667 128 42.666667s128-19.2 128-42.666667v-42.666666c0 23.466667-57.6 42.666667-128 42.666666z" fill="#FFA000"></path><path d="M512 853.333333c-70.4 0-128-19.2-128-42.666666v42.666666c0 23.466667 57.6 42.666667 128 42.666667s128-19.2 128-42.666667v-42.666666c0 23.466667-57.6 42.666667-128 42.666666z" fill="#FFA000"></path><path d="M384 490.666667a128 42.666667 0 1 0 256 0 128 42.666667 0 1 0-256 0Z" fill="#FFC107"></path><path d="M512 576c-59.733333 0-108.8-12.8-123.733333-32-2.133333 4.266667-4.266667 6.4-4.266667 10.666667 0 23.466667 57.6 42.666667 128 42.666666s128-19.2 128-42.666666c0-4.266667-2.133333-6.4-4.266667-10.666667-14.933333 19.2-64 32-123.733333 32zM512 640c-59.733333 0-108.8-12.8-123.733333-32-2.133333 4.266667-4.266667 6.4-4.266667 10.666667 0 23.466667 57.6 42.666667 128 42.666666s128-19.2 128-42.666666c0-4.266667-2.133333-6.4-4.266667-10.666667-14.933333 19.2-64 32-123.733333 32zM512 704c-59.733333 0-108.8-12.8-123.733333-32-2.133333 4.266667-4.266667 6.4-4.266667 10.666667 0 23.466667 57.6 42.666667 128 42.666666s128-19.2 128-42.666666c0-4.266667-2.133333-6.4-4.266667-10.666667-14.933333 19.2-64 32-123.733333 32zM512 768c-59.733333 0-108.8-12.8-123.733333-32-2.133333 4.266667-4.266667 6.4-4.266667 10.666667 0 23.466667 57.6 42.666667 128 42.666666s128-19.2 128-42.666666c0-4.266667-2.133333-6.4-4.266667-10.666667-14.933333 19.2-64 32-123.733333 32zM512 832c-59.733333 0-108.8-12.8-123.733333-32-2.133333 4.266667-4.266667 6.4-4.266667 10.666667 0 23.466667 57.6 42.666667 128 42.666666s128-19.2 128-42.666666c0-4.266667-2.133333-6.4-4.266667-10.666667-14.933333 19.2-64 32-123.733333 32z" fill="#FFC107"></path></g><g id="SVGRepo_iconCarrier"><path d="M810.666667 277.333333c-70.4 0-128-19.2-128-42.666666v42.666666c0 23.466667 57.6 42.666667 128 42.666667s128-19.2 128-42.666667v-42.666666c0 23.466667-57.6 42.666667-128 42.666666z" fill="#FFA000"></path><path d="M810.666667 213.333333c-70.4 0-128-19.2-128-42.666666v42.666666c0 23.466667 57.6 42.666667 128 42.666667s128-19.2 128-42.666667V170.666667c0 23.466667-57.6 42.666667-128 42.666666zM810.666667 341.333333c-70.4 0-128-19.2-128-42.666666v42.666666c0 23.466667 57.6 42.666667 128 42.666667s128-19.2 128-42.666667v-42.666666c0 23.466667-57.6 42.666667-128 42.666666z" fill="#FFA000"></path><path d="M810.666667 405.333333c-70.4 0-128-19.2-128-42.666666v42.666666c0 23.466667 57.6 42.666667 128 42.666667s128-19.2 128-42.666667v-42.666666c0 23.466667-57.6 42.666667-128 42.666666z" fill="#FFA000"></path><path d="M810.666667 469.333333c-70.4 0-128-19.2-128-42.666666v42.666666c0 23.466667 57.6 42.666667 128 42.666667s128-19.2 128-42.666667v-42.666666c0 23.466667-57.6 42.666667-128 42.666666z" fill="#FFA000"></path><path d="M810.666667 533.333333c-70.4 0-128-19.2-128-42.666666v42.666666c0 23.466667 57.6 42.666667 128 42.666667s128-19.2 128-42.666667v-42.666666c0 23.466667-57.6 42.666667-128 42.666666z" fill="#FFA000"></path><path d="M810.666667 597.333333c-70.4 0-128-19.2-128-42.666666v42.666666c0 23.466667 57.6 42.666667 128 42.666667s128-19.2 128-42.666667v-42.666666c0 23.466667-57.6 42.666667-128 42.666666z" fill="#FFA000"></path><path d="M810.666667 661.333333c-70.4 0-128-19.2-128-42.666666v42.666666c0 23.466667 57.6 42.666667 128 42.666667s128-19.2 128-42.666667v-42.666666c0 23.466667-57.6 42.666667-128 42.666666z" fill="#FFA000"></path><path d="M810.666667 725.333333c-70.4 0-128-19.2-128-42.666666v42.666666c0 23.466667 57.6 42.666667 128 42.666667s128-19.2 128-42.666667v-42.666666c0 23.466667-57.6 42.666667-128 42.666666z" fill="#FFA000"></path><path d="M810.666667 789.333333c-70.4 0-128-19.2-128-42.666666v42.666666c0 23.466667 57.6 42.666667 128 42.666667s128-19.2 128-42.666667v-42.666666c0 23.466667-57.6 42.666667-128 42.666666z" fill="#FFA000"></path><path d="M810.666667 853.333333c-70.4 0-128-19.2-128-42.666666v42.666666c0 23.466667 57.6 42.666667 128 42.666667s128-19.2 128-42.666667v-42.666666c0 23.466667-57.6 42.666667-128 42.666666z" fill="#FFA000"></path><path d="M682.666667 170.666667a128 42.666667 0 1 0 256 0 128 42.666667 0 1 0-256 0Z" fill="#FFC107"></path><path d="M810.666667 256c-59.733333 0-108.8-12.8-123.733334-32-2.133333 4.266667-4.266667 6.4-4.266666 10.666667 0 23.466667 57.6 42.666667 128 42.666666s128-19.2 128-42.666666c0-4.266667-2.133333-6.4-4.266667-10.666667-14.933333 19.2-64 32-123.733333 32zM810.666667 320c-59.733333 0-108.8-12.8-123.733334-32-2.133333 4.266667-4.266667 6.4-4.266666 10.666667 0 23.466667 57.6 42.666667 128 42.666666s128-19.2 128-42.666666c0-4.266667-2.133333-6.4-4.266667-10.666667-14.933333 19.2-64 32-123.733333 32zM810.666667 384c-59.733333 0-108.8-12.8-123.733334-32-2.133333 4.266667-4.266667 6.4-4.266666 10.666667 0 23.466667 57.6 42.666667 128 42.666666s128-19.2 128-42.666666c0-4.266667-2.133333-6.4-4.266667-10.666667-14.933333 19.2-64 32-123.733333 32zM810.666667 448c-59.733333 0-108.8-12.8-123.733334-32-2.133333 4.266667-4.266667 6.4-4.266666 10.666667 0 23.466667 57.6 42.666667 128 42.666666s128-19.2 128-42.666666c0-4.266667-2.133333-6.4-4.266667-10.666667-14.933333 19.2-64 32-123.733333 32zM810.666667 512c-59.733333 0-108.8-12.8-123.733334-32-2.133333 4.266667-4.266667 6.4-4.266666 10.666667 0 23.466667 57.6 42.666667 128 42.666666s128-19.2 128-42.666666c0-4.266667-2.133333-6.4-4.266667-10.666667-14.933333 19.2-64 32-123.733333 32zM810.666667 576c-59.733333 0-108.8-12.8-123.733334-32-2.133333 4.266667-4.266667 6.4-4.266666 10.666667 0 23.466667 57.6 42.666667 128 42.666666s128-19.2 128-42.666666c0-4.266667-2.133333-6.4-4.266667-10.666667-14.933333 19.2-64 32-123.733333 32zM810.666667 640c-59.733333 0-108.8-12.8-123.733334-32-2.133333 4.266667-4.266667 6.4-4.266666 10.666667 0 23.466667 57.6 42.666667 128 42.666666s128-19.2 128-42.666666c0-4.266667-2.133333-6.4-4.266667-10.666667-14.933333 19.2-64 32-123.733333 32zM810.666667 704c-59.733333 0-108.8-12.8-123.733334-32-2.133333 4.266667-4.266667 6.4-4.266666 10.666667 0 23.466667 57.6 42.666667 128 42.666666s128-19.2 128-42.666666c0-4.266667-2.133333-6.4-4.266667-10.666667-14.933333 19.2-64 32-123.733333 32zM810.666667 768c-59.733333 0-108.8-12.8-123.733334-32-2.133333 4.266667-4.266667 6.4-4.266666 10.666667 0 23.466667 57.6 42.666667 128 42.666666s128-19.2 128-42.666666c0-4.266667-2.133333-6.4-4.266667-10.666667-14.933333 19.2-64 32-123.733333 32zM810.666667 832c-59.733333 0-108.8-12.8-123.733334-32-2.133333 4.266667-4.266667 6.4-4.266666 10.666667 0 23.466667 57.6 42.666667 128 42.666666s128-19.2 128-42.666666c0-4.266667-2.133333-6.4-4.266667-10.666667-14.933333 19.2-64 32-123.733333 32z" fill="#FFC107"></path><path d="M213.333333 405.333333c-70.4 0-128-19.2-128-42.666666v42.666666c0 23.466667 57.6 42.666667 128 42.666667s128-19.2 128-42.666667v-42.666666c0 23.466667-57.6 42.666667-128 42.666666z" fill="#FFA000"></path><path d="M213.333333 341.333333c-70.4 0-128-19.2-128-42.666666v42.666666c0 23.466667 57.6 42.666667 128 42.666667s128-19.2 128-42.666667v-42.666666c0 23.466667-57.6 42.666667-128 42.666666zM213.333333 469.333333c-70.4 0-128-19.2-128-42.666666v42.666666c0 23.466667 57.6 42.666667 128 42.666667s128-19.2 128-42.666667v-42.666666c0 23.466667-57.6 42.666667-128 42.666666z" fill="#FFA000"></path><path d="M213.333333 533.333333c-70.4 0-128-19.2-128-42.666666v42.666666c0 23.466667 57.6 42.666667 128 42.666667s128-19.2 128-42.666667v-42.666666c0 23.466667-57.6 42.666667-128 42.666666z" fill="#FFA000"></path><path d="M213.333333 597.333333c-70.4 0-128-19.2-128-42.666666v42.666666c0 23.466667 57.6 42.666667 128 42.666667s128-19.2 128-42.666667v-42.666666c0 23.466667-57.6 42.666667-128 42.666666z" fill="#FFA000"></path><path d="M213.333333 661.333333c-70.4 0-128-19.2-128-42.666666v42.666666c0 23.466667 57.6 42.666667 128 42.666667s128-19.2 128-42.666667v-42.666666c0 23.466667-57.6 42.666667-128 42.666666z" fill="#FFA000"></path><path d="M213.333333 725.333333c-70.4 0-128-19.2-128-42.666666v42.666666c0 23.466667 57.6 42.666667 128 42.666667s128-19.2 128-42.666667v-42.666666c0 23.466667-57.6 42.666667-128 42.666666z" fill="#FFA000"></path><path d="M213.333333 789.333333c-70.4 0-128-19.2-128-42.666666v42.666666c0 23.466667 57.6 42.666667 128 42.666667s128-19.2 128-42.666667v-42.666666c0 23.466667-57.6 42.666667-128 42.666666z" fill="#FFA000"></path><path d="M213.333333 853.333333c-70.4 0-128-19.2-128-42.666666v42.666666c0 23.466667 57.6 42.666667 128 42.666667s128-19.2 128-42.666667v-42.666666c0 23.466667-57.6 42.666667-128 42.666666z" fill="#FFA000"></path><path d="M85.333333 298.666667a128 42.666667 0 1 0 256 0 128 42.666667 0 1 0-256 0Z" fill="#FFC107"></path><path d="M213.333333 384c-59.733333 0-108.8-12.8-123.733333-32-2.133333 4.266667-4.266667 6.4-4.266667 10.666667 0 23.466667 57.6 42.666667 128 42.666666s128-19.2 128-42.666666c0-4.266667-2.133333-6.4-4.266666-10.666667-14.933333 19.2-64 32-123.733334 32zM213.333333 448c-59.733333 0-108.8-12.8-123.733333-32-2.133333 4.266667-4.266667 6.4-4.266667 10.666667 0 23.466667 57.6 42.666667 128 42.666666s128-19.2 128-42.666666c0-4.266667-2.133333-6.4-4.266666-10.666667-14.933333 19.2-64 32-123.733334 32zM213.333333 512c-59.733333 0-108.8-12.8-123.733333-32-2.133333 4.266667-4.266667 6.4-4.266667 10.666667 0 23.466667 57.6 42.666667 128 42.666666s128-19.2 128-42.666666c0-4.266667-2.133333-6.4-4.266666-10.666667-14.933333 19.2-64 32-123.733334 32zM213.333333 576c-59.733333 0-108.8-12.8-123.733333-32-2.133333 4.266667-4.266667 6.4-4.266667 10.666667 0 23.466667 57.6 42.666667 128 42.666666s128-19.2 128-42.666666c0-4.266667-2.133333-6.4-4.266666-10.666667-14.933333 19.2-64 32-123.733334 32zM213.333333 640c-59.733333 0-108.8-12.8-123.733333-32-2.133333 4.266667-4.266667 6.4-4.266667 10.666667 0 23.466667 57.6 42.666667 128 42.666666s128-19.2 128-42.666666c0-4.266667-2.133333-6.4-4.266666-10.666667-14.933333 19.2-64 32-123.733334 32zM213.333333 704c-59.733333 0-108.8-12.8-123.733333-32-2.133333 4.266667-4.266667 6.4-4.266667 10.666667 0 23.466667 57.6 42.666667 128 42.666666s128-19.2 128-42.666666c0-4.266667-2.133333-6.4-4.266666-10.666667-14.933333 19.2-64 32-123.733334 32zM213.333333 768c-59.733333 0-108.8-12.8-123.733333-32-2.133333 4.266667-4.266667 6.4-4.266667 10.666667 0 23.466667 57.6 42.666667 128 42.666666s128-19.2 128-42.666666c0-4.266667-2.133333-6.4-4.266666-10.666667-14.933333 19.2-64 32-123.733334 32zM213.333333 832c-59.733333 0-108.8-12.8-123.733333-32-2.133333 4.266667-4.266667 6.4-4.266667 10.666667 0 23.466667 57.6 42.666667 128 42.666666s128-19.2 128-42.666666c0-4.266667-2.133333-6.4-4.266666-10.666667-14.933333 19.2-64 32-123.733334 32z" fill="#FFC107"></path><path d="M512 597.333333c-70.4 0-128-19.2-128-42.666666v42.666666c0 23.466667 57.6 42.666667 128 42.666667s128-19.2 128-42.666667v-42.666666c0 23.466667-57.6 42.666667-128 42.666666z" fill="#FFA000"></path><path d="M512 533.333333c-70.4 0-128-19.2-128-42.666666v42.666666c0 23.466667 57.6 42.666667 128 42.666667s128-19.2 128-42.666667v-42.666666c0 23.466667-57.6 42.666667-128 42.666666zM512 661.333333c-70.4 0-128-19.2-128-42.666666v42.666666c0 23.466667 57.6 42.666667 128 42.666667s128-19.2 128-42.666667v-42.666666c0 23.466667-57.6 42.666667-128 42.666666z" fill="#FFA000"></path><path d="M512 725.333333c-70.4 0-128-19.2-128-42.666666v42.666666c0 23.466667 57.6 42.666667 128 42.666667s128-19.2 128-42.666667v-42.666666c0 23.466667-57.6 42.666667-128 42.666666z" fill="#FFA000"></path><path d="M512 789.333333c-70.4 0-128-19.2-128-42.666666v42.666666c0 23.466667 57.6 42.666667 128 42.666667s128-19.2 128-42.666667v-42.666666c0 23.466667-57.6 42.666667-128 42.666666z" fill="#FFA000"></path><path d="M512 853.333333c-70.4 0-128-19.2-128-42.666666v42.666666c0 23.466667 57.6 42.666667 128 42.666667s128-19.2 128-42.666667v-42.666666c0 23.466667-57.6 42.666667-128 42.666666z" fill="#FFA000"></path><path d="M384 490.666667a128 42.666667 0 1 0 256 0 128 42.666667 0 1 0-256 0Z" fill="#FFC107"></path><path d="M512 576c-59.733333 0-108.8-12.8-123.733333-32-2.133333 4.266667-4.266667 6.4-4.266667 10.666667 0 23.466667 57.6 42.666667 128 42.666666s128-19.2 128-42.666666c0-4.266667-2.133333-6.4-4.266667-10.666667-14.933333 19.2-64 32-123.733333 32zM512 640c-59.733333 0-108.8-12.8-123.733333-32-2.133333 4.266667-4.266667 6.4-4.266667 10.666667 0 23.466667 57.6 42.666667 128 42.666666s128-19.2 128-42.666666c0-4.266667-2.133333-6.4-4.266667-10.666667-14.933333 19.2-64 32-123.733333 32zM512 704c-59.733333 0-108.8-12.8-123.733333-32-2.133333 4.266667-4.266667 6.4-4.266667 10.666667 0 23.466667 57.6 42.666667 128 42.666666s128-19.2 128-42.666666c0-4.266667-2.133333-6.4-4.266667-10.666667-14.933333 19.2-64 32-123.733333 32zM512 768c-59.733333 0-108.8-12.8-123.733333-32-2.133333 4.266667-4.266667 6.4-4.266667 10.666667 0 23.466667 57.6 42.666667 128 42.666666s128-19.2 128-42.666666c0-4.266667-2.133333-6.4-4.266667-10.666667-14.933333 19.2-64 32-123.733333 32zM512 832c-59.733333 0-108.8-12.8-123.733333-32-2.133333 4.266667-4.266667 6.4-4.266667 10.666667 0 23.466667 57.6 42.666667 128 42.666666s128-19.2 128-42.666666c0-4.266667-2.133333-6.4-4.266667-10.666667-14.933333 19.2-64 32-123.733333 32z" fill="#FFC107"></path></g></svg>