<svg height="200px" width="200px" version="1.1" id="Layer_1" xmlns="http://www.w3.org/2000/svg" xmlns:xlink="http://www.w3.org/1999/xlink" viewBox="0 0 392.598 392.598" xml:space="preserve" fill="#000000"><g id="SVGRepo_bgCarrier" stroke-width="0"></g><g id="SVGRepo_tracerCarrier" stroke-linecap="round" stroke-linejoin="round"></g><g id="SVGRepo_iconCarrier"> <path style="fill:#FFC10D;" d="M370.78,32.711c0-6.012-4.848-10.925-10.925-10.925H32.743c-6.012,0-10.925,4.848-10.925,10.925 v60.38H370.78L370.78,32.711L370.78,32.711z"></path> <path style="fill:#FFFFFF;" d="M21.818,359.822c0,6.012,4.848,10.925,10.925,10.925h327.111c6.012,0,10.925-4.848,10.925-10.925 V114.877H21.818V359.822z"></path> <g> <path style="fill:#194F82;" d="M359.855,0H32.743C14.707,0,0.032,14.675,0.032,32.711v327.111 c0,18.101,14.675,32.776,32.711,32.776h327.111c18.036,0,32.711-14.675,32.711-32.711V32.711C392.566,14.675,377.891,0,359.855,0z M370.78,359.822c0,6.012-4.848,10.925-10.925,10.925H32.743c-6.012,0-10.925-4.848-10.925-10.925V114.877H370.78L370.78,359.822 L370.78,359.822z M21.818,32.711c0-6.012,4.848-10.925,10.925-10.925h327.111c6.012,0,10.925,4.848,10.925,10.925v60.38H21.818 V32.711z"></path> <path style="fill:#194F82;" d="M259.846,49.067h-27.022c-6.012,0-10.925,4.848-10.925,10.925c0,6.012,4.848,10.925,10.925,10.925 h27.022c6.012,0,10.925-4.848,10.925-10.925C270.707,53.915,265.859,49.067,259.846,49.067z"></path> <path style="fill:#194F82;" d="M332.768,49.067h-27.022c-6.012,0-10.925,4.848-10.925,10.925c0,6.012,4.848,10.925,10.925,10.925 h27.022c6.012,0,10.925-4.848,10.925-10.925C343.628,53.915,338.78,49.067,332.768,49.067z"></path> </g> <path style="fill:#56ACE0;" d="M72.178,222.319h8.663c5.042,0,9.438,3.491,10.602,8.339l24.307,102.012h160.97l24.372-102.012 c1.164-4.913,5.56-8.339,10.602-8.339h8.663v-6.594H72.178V222.319z"></path> <g> <path style="fill:#194F82;" d="M331.281,193.939H301.22l-65.552-63.354c-4.331-4.202-11.184-4.073-15.451,0.259 c-4.202,4.331-4.073,11.184,0.259,15.451l49.325,47.709H122.731l49.325-47.709c4.331-4.202,4.461-11.055,0.259-15.451 c-4.202-4.331-11.119-4.396-15.451-0.259l-65.552,63.354H61.317c-6.012,0-10.925,4.848-10.925,10.925v28.444 c0,6.012,4.848,10.925,10.925,10.925h10.99l24.372,102.012c1.164,4.913,5.56,8.339,10.602,8.339h178.166 c5.042,0,9.438-3.491,10.602-8.339l24.372-102.012h10.99c6.012,0,10.925-4.848,10.925-10.925v-28.444 C342.206,198.788,337.293,193.939,331.281,193.939z M320.42,222.319h-8.663c-5.042,0-9.438,3.491-10.602,8.339l-24.307,102.012 H115.75L91.378,230.659c-1.164-4.913-5.56-8.339-10.602-8.339h-8.598v-6.594H320.42V222.319z"></path> <path style="fill:#194F82;" d="M239.741,319.806c6.012,0,10.925-4.848,10.925-10.925v-64.194c0-6.012-4.848-10.925-10.925-10.925 c-6.012,0-10.925,4.848-10.925,10.925v64.194C228.816,314.958,233.729,319.806,239.741,319.806z"></path> <path style="fill:#194F82;" d="M192.485,319.806c6.012,0,10.925-4.848,10.925-10.925v-64.194c0-6.012-4.848-10.925-10.925-10.925 c-6.012,0-10.925,4.848-10.925,10.925v64.194C181.624,314.958,186.473,319.806,192.485,319.806z"></path> <path style="fill:#194F82;" d="M145.358,319.806c6.012,0,10.925-4.848,10.925-10.925v-64.194c0-6.012-4.848-10.925-10.925-10.925 c-6.077,0-10.925,4.848-10.925,10.925v64.194C134.497,314.958,139.345,319.806,145.358,319.806z"></path> </g> </g></svg>