<svg version="1.1" id="Layer_1" xmlns="http://www.w3.org/2000/svg" xmlns:xlink="http://www.w3.org/1999/xlink" viewBox="0 0 512 512" xml:space="preserve" fill="#000000"><g id="SVGRepo_bgCarrier" stroke-width="0"></g><g id="SVGRepo_tracerCarrier" stroke-linecap="round" stroke-linejoin="round"></g><g id="SVGRepo_iconCarrier"> <circle style="fill:#FFD15D;" cx="256" cy="256" r="256"></circle> <path style="fill:#F9B54C;" d="M293.51,509.257c115.805-17.005,206.389-111.54,217.357-229.202L407.704,176.892l-122.296,91.896 L155.712,139.092l-19.809-4.915l-29.882,10.747l110.932,110.932l-56.005-0.862l4.405,112.306l24.841,23.962l-4.658,10.409 L293.51,509.257z"></path> <path style="fill:#05BEA6;" d="M320.888,322.282H164.904V176.893h242.8l-38.176,114.067 C363.323,309.5,343.474,322.282,320.888,322.282z"></path> <path style="fill:#2C9984;" d="M261.46,176.892v145.389h59.428c22.585,0,42.436-12.783,48.64-31.322l38.176-114.067L261.46,176.892 L261.46,176.892z"></path> <path style="fill:#324A5E;" d="M352.852,381.121H198.685c-26.079,0-47.295-21.216-47.295-47.295v-160.57 c0-15.624-12.71-28.334-28.334-28.334H106.02v-18.963h17.037c26.079,0,47.297,21.218,47.297,47.297v160.57 c0,15.624,12.709,28.332,28.332,28.332h154.167v18.963H352.852z"></path> <rect x="261.465" y="362.158" style="fill:#2B3B4E;" width="91.401" height="18.963"></rect> <g> <circle style="fill:#2C9984;" cx="202.007" cy="385.345" r="13.714"></circle> <path style="fill:#2C9984;" d="M202.011,408.547c-12.79,0-23.193-10.404-23.193-23.193s10.404-23.195,23.193-23.195 s23.195,10.405,23.195,23.195S214.8,408.547,202.011,408.547z M202.011,381.121c-2.334,0-4.23,1.9-4.23,4.232 c0,2.332,1.898,4.23,4.23,4.23c2.332,0,4.232-1.898,4.232-4.23C206.243,383.021,204.343,381.121,202.011,381.121z"></path> <circle style="fill:#2C9984;" cx="311.717" cy="385.345" r="13.714"></circle> <path style="fill:#2C9984;" d="M311.713,408.547c-12.79,0-23.195-10.404-23.195-23.193s10.405-23.195,23.195-23.195 s23.193,10.405,23.193,23.195S324.503,408.547,311.713,408.547z M311.713,381.121c-2.334,0-4.232,1.9-4.232,4.232 c0,2.332,1.9,4.23,4.232,4.23s4.23-1.898,4.23-4.23C315.944,383.021,314.047,381.121,311.713,381.121z"></path> </g> </g></svg>